<svg width="411" height="68" viewBox="0 0 411 68" fill="none" xmlns="http://www.w3.org/2000/svg">
<path d="M12.804 8.292C12.2067 7.80667 11.6093 7.452 11.012 7.228C10.4147 6.98533 9.836 6.864 9.276 6.864C8.56667 6.864 7.988 7.032 7.54 7.368C7.092 7.704 6.868 8.14267 6.868 8.684C6.868 9.05733 6.98 9.36533 7.204 9.608C7.428 9.85067 7.71733 10.0653 8.072 10.252C8.44533 10.42 8.856 10.5693 9.304 10.7C9.77067 10.8307 10.228 10.9707 10.676 11.12C12.468 11.7173 13.7747 12.52 14.596 13.528C15.436 14.5173 15.856 15.8147 15.856 17.42C15.856 18.5027 15.6693 19.4827 15.296 20.36C14.9413 21.2373 14.4093 21.9933 13.7 22.628C13.0093 23.244 12.1507 23.72 11.124 24.056C10.116 24.4107 8.968 24.588 7.68 24.588C5.01067 24.588 2.53733 23.7947 0.26 22.208L2.612 17.784C3.43333 18.512 4.24533 19.0533 5.048 19.408C5.85067 19.7627 6.644 19.94 7.428 19.94C8.324 19.94 8.98667 19.7347 9.416 19.324C9.864 18.9133 10.088 18.4467 10.088 17.924C10.088 17.6067 10.032 17.336 9.92 17.112C9.808 16.8693 9.62133 16.6547 9.36 16.468C9.09867 16.2627 8.75333 16.076 8.324 15.908C7.91333 15.74 7.40933 15.5533 6.812 15.348C6.10267 15.124 5.40267 14.8813 4.712 14.62C4.04 14.34 3.43333 13.976 2.892 13.528C2.36933 13.08 1.94 12.52 1.604 11.848C1.28667 11.1573 1.128 10.2893 1.128 9.244C1.128 8.19867 1.296 7.256 1.632 6.416C1.98667 5.55733 2.472 4.82933 3.088 4.232C3.72267 3.616 4.488 3.14 5.384 2.804C6.29867 2.468 7.316 2.3 8.436 2.3C9.48133 2.3 10.5733 2.44933 11.712 2.748C12.8507 3.028 13.9427 3.448 14.988 4.008L12.804 8.292ZM23.9056 9.636V17.728C23.9056 19.5013 24.7642 20.388 26.4816 20.388C28.1989 20.388 29.0576 19.5013 29.0576 17.728V9.636H34.1256V18.708C34.1256 20.6493 33.4816 22.1053 32.1936 23.076C30.9242 24.0467 29.0202 24.532 26.4816 24.532C23.9429 24.532 22.0296 24.0467 20.7416 23.076C19.4722 22.1053 18.8376 20.6493 18.8376 18.708V9.636H23.9056ZM37.568 9.636H42.636V11.4C44.0174 10.0747 45.5667 9.412 47.284 9.412C49.412 9.412 51.036 10.308 52.156 12.1C53.2947 10.2893 54.9187 9.384 57.028 9.384C57.7 9.384 58.3347 9.48667 58.932 9.692C59.5294 9.87867 60.0427 10.1867 60.472 10.616C60.9014 11.0267 61.2374 11.568 61.48 12.24C61.7414 12.912 61.872 13.724 61.872 14.676V24H56.804V16.916C56.804 16.188 56.748 15.5907 56.636 15.124C56.5427 14.6573 56.3934 14.2933 56.188 14.032C56.0014 13.7707 55.7774 13.5933 55.516 13.5C55.2547 13.4067 54.9747 13.36 54.676 13.36C53.052 13.36 52.24 14.5453 52.24 16.916V24H47.172V16.916C47.172 16.188 47.1254 15.5907 47.032 15.124C46.9387 14.6387 46.7987 14.256 46.612 13.976C46.444 13.696 46.22 13.5093 45.94 13.416C45.66 13.304 45.3334 13.248 44.96 13.248C44.6427 13.248 44.344 13.2947 44.064 13.388C43.784 13.4813 43.532 13.668 43.308 13.948C43.1027 14.2093 42.9347 14.5827 42.804 15.068C42.692 15.5347 42.636 16.1507 42.636 16.916V24H37.568V9.636ZM65.3493 9.636H70.4173V11.4C71.7986 10.0747 73.3479 9.412 75.0653 9.412C77.1933 9.412 78.8173 10.308 79.9373 12.1C81.0759 10.2893 82.6999 9.384 84.8093 9.384C85.4813 9.384 86.1159 9.48667 86.7133 9.692C87.3106 9.87867 87.8239 10.1867 88.2533 10.616C88.6826 11.0267 89.0186 11.568 89.2613 12.24C89.5226 12.912 89.6533 13.724 89.6533 14.676V24H84.5853V16.916C84.5853 16.188 84.5293 15.5907 84.4173 15.124C84.3239 14.6573 84.1746 14.2933 83.9693 14.032C83.7826 13.7707 83.5586 13.5933 83.2973 13.5C83.0359 13.4067 82.7559 13.36 82.4573 13.36C80.8333 13.36 80.0213 14.5453 80.0213 16.916V24H74.9533V16.916C74.9533 16.188 74.9066 15.5907 74.8133 15.124C74.7199 14.6387 74.5799 14.256 74.3933 13.976C74.2253 13.696 74.0013 13.5093 73.7213 13.416C73.4413 13.304 73.1146 13.248 72.7413 13.248C72.4239 13.248 72.1253 13.2947 71.8453 13.388C71.5653 13.4813 71.3133 13.668 71.0893 13.948C70.8839 14.2093 70.7159 14.5827 70.5853 15.068C70.4733 15.5347 70.4173 16.1507 70.4173 16.916V24H65.3493V9.636ZM103.631 14.732C103.463 14.0227 103.117 13.4533 102.595 13.024C102.072 12.5947 101.437 12.38 100.691 12.38C99.9065 12.38 99.2625 12.5853 98.7585 12.996C98.2732 13.4067 97.9652 13.9853 97.8345 14.732H103.631ZM97.6945 17.672C97.6945 19.856 98.7212 20.948 100.775 20.948C101.876 20.948 102.707 20.5 103.267 19.604H108.167C107.177 22.8893 104.704 24.532 100.747 24.532C99.5332 24.532 98.4225 24.3547 97.4145 24C96.4065 23.6267 95.5385 23.104 94.8105 22.432C94.1012 21.76 93.5505 20.9573 93.1585 20.024C92.7665 19.0907 92.5705 18.0453 92.5705 16.888C92.5705 15.6933 92.7572 14.62 93.1305 13.668C93.5039 12.6973 94.0359 11.876 94.7265 11.204C95.4172 10.532 96.2479 10.0187 97.2185 9.664C98.2079 9.29067 99.3185 9.104 100.551 9.104C101.764 9.104 102.856 9.29067 103.827 9.664C104.797 10.0187 105.619 10.5413 106.291 11.232C106.963 11.9227 107.476 12.772 107.831 13.78C108.185 14.7693 108.363 15.8893 108.363 17.14V17.672H97.6945ZM111.259 9.636H116.327V11.988C116.869 11.1293 117.531 10.476 118.315 10.028C119.099 9.56133 120.014 9.328 121.059 9.328C121.19 9.328 121.33 9.328 121.479 9.328C121.647 9.328 121.834 9.34667 122.039 9.384V14.228C121.367 13.892 120.639 13.724 119.855 13.724C118.679 13.724 117.793 14.0787 117.195 14.788C116.617 15.4787 116.327 16.496 116.327 17.84V24H111.259V9.636ZM139.755 11.036H147.679V2.888H153.167V24H147.679V15.292H139.755V24H134.267V2.888H139.755V11.036ZM167.615 14.732C167.447 14.0227 167.102 13.4533 166.579 13.024C166.056 12.5947 165.422 12.38 164.675 12.38C163.891 12.38 163.247 12.5853 162.743 12.996C162.258 13.4067 161.95 13.9853 161.819 14.732H167.615ZM161.679 17.672C161.679 19.856 162.706 20.948 164.759 20.948C165.86 20.948 166.691 20.5 167.251 19.604H172.151C171.162 22.8893 168.688 24.532 164.731 24.532C163.518 24.532 162.407 24.3547 161.399 24C160.391 23.6267 159.523 23.104 158.795 22.432C158.086 21.76 157.535 20.9573 157.143 20.024C156.751 19.0907 156.555 18.0453 156.555 16.888C156.555 15.6933 156.742 14.62 157.115 13.668C157.488 12.6973 158.02 11.876 158.711 11.204C159.402 10.532 160.232 10.0187 161.203 9.664C162.192 9.29067 163.303 9.104 164.535 9.104C165.748 9.104 166.84 9.29067 167.811 9.664C168.782 10.0187 169.603 10.5413 170.275 11.232C170.947 11.9227 171.46 12.772 171.815 13.78C172.17 14.7693 172.347 15.8893 172.347 17.14V17.672H161.679ZM179.948 16.776C179.948 17.2427 180.032 17.6813 180.2 18.092C180.368 18.484 180.592 18.8293 180.872 19.128C181.17 19.4267 181.516 19.66 181.908 19.828C182.318 19.996 182.757 20.08 183.224 20.08C183.672 20.08 184.092 19.996 184.484 19.828C184.894 19.66 185.24 19.4267 185.52 19.128C185.818 18.8293 186.052 18.484 186.22 18.092C186.406 17.7 186.5 17.28 186.5 16.832C186.5 16.384 186.406 15.964 186.22 15.572C186.052 15.1613 185.818 14.8067 185.52 14.508C185.24 14.2093 184.894 13.976 184.484 13.808C184.092 13.64 183.672 13.556 183.224 13.556C182.757 13.556 182.318 13.64 181.908 13.808C181.516 13.976 181.17 14.2093 180.872 14.508C180.592 14.8067 180.368 15.152 180.2 15.544C180.032 15.9173 179.948 16.328 179.948 16.776ZM186.332 9.636H191.428V24H186.332V22.404C185.249 23.7667 183.784 24.448 181.936 24.448C180.89 24.448 179.929 24.2613 179.052 23.888C178.174 23.496 177.409 22.9547 176.756 22.264C176.102 21.5733 175.589 20.7613 175.216 19.828C174.861 18.8947 174.684 17.8773 174.684 16.776C174.684 15.7493 174.861 14.7787 175.216 13.864C175.57 12.9307 176.065 12.1187 176.7 11.428C177.334 10.7373 178.09 10.196 178.968 9.804C179.845 9.39333 180.816 9.188 181.88 9.188C183.672 9.188 185.156 9.81333 186.332 11.064V9.636ZM199.945 0.759999V24H194.877V0.759999H199.945ZM209.064 13.864V24H203.996V13.864H202.316V9.636H203.996V5.324H209.064V9.636H211.948V13.864H209.064ZM214.509 0.759999H219.577V11.456C220.268 10.616 220.968 10.056 221.677 9.776C222.387 9.47733 223.217 9.328 224.169 9.328C225.98 9.328 227.343 9.832 228.257 10.84C229.191 11.8293 229.657 13.1733 229.657 14.872V24H224.589V16.748C224.589 16.02 224.533 15.432 224.421 14.984C224.309 14.536 224.123 14.1907 223.861 13.948C223.413 13.556 222.872 13.36 222.237 13.36C221.379 13.36 220.716 13.6213 220.249 14.144C219.801 14.648 219.577 15.376 219.577 16.328V24H214.509V0.759999ZM248.583 12.576H250.403C252.419 12.576 253.427 11.6987 253.427 9.944C253.427 8.18933 252.419 7.312 250.403 7.312H248.583V12.576ZM248.583 24H243.095V2.888H251.831C254.201 2.888 256.012 3.504 257.263 4.736C258.532 5.968 259.167 7.704 259.167 9.944C259.167 12.184 258.532 13.92 257.263 15.152C256.012 16.384 254.201 17 251.831 17H248.583V24ZM261.595 9.636H266.663V11.988C267.205 11.1293 267.867 10.476 268.651 10.028C269.435 9.56133 270.35 9.328 271.395 9.328C271.526 9.328 271.666 9.328 271.815 9.328C271.983 9.328 272.17 9.34667 272.375 9.384V14.228C271.703 13.892 270.975 13.724 270.191 13.724C269.015 13.724 268.129 14.0787 267.531 14.788C266.953 15.4787 266.663 16.496 266.663 17.84V24H261.595V9.636ZM279.536 16.748C279.536 17.2333 279.62 17.6813 279.788 18.092C279.974 18.484 280.208 18.8293 280.488 19.128C280.786 19.4267 281.132 19.66 281.524 19.828C281.934 19.996 282.364 20.08 282.812 20.08C283.26 20.08 283.68 19.996 284.072 19.828C284.482 19.66 284.828 19.4267 285.108 19.128C285.406 18.8293 285.64 18.484 285.808 18.092C285.994 17.6813 286.088 17.2427 286.088 16.776C286.088 16.328 285.994 15.908 285.808 15.516C285.64 15.1053 285.406 14.7507 285.108 14.452C284.828 14.1533 284.482 13.92 284.072 13.752C283.68 13.584 283.26 13.5 282.812 13.5C282.364 13.5 281.934 13.584 281.524 13.752C281.132 13.92 280.786 14.1533 280.488 14.452C280.208 14.7507 279.974 15.096 279.788 15.488C279.62 15.88 279.536 16.3 279.536 16.748ZM274.188 16.692C274.188 15.628 274.402 14.6387 274.832 13.724C275.261 12.7907 275.858 11.988 276.624 11.316C277.389 10.6253 278.294 10.084 279.34 9.692C280.404 9.3 281.561 9.104 282.812 9.104C284.044 9.104 285.182 9.3 286.228 9.692C287.292 10.0653 288.206 10.5973 288.972 11.288C289.756 11.96 290.362 12.772 290.792 13.724C291.221 14.6573 291.436 15.6933 291.436 16.832C291.436 17.9707 291.212 19.016 290.764 19.968C290.334 20.9013 289.737 21.7133 288.972 22.404C288.206 23.076 287.282 23.5987 286.2 23.972C285.136 24.3453 283.978 24.532 282.728 24.532C281.496 24.532 280.357 24.3453 279.312 23.972C278.266 23.5987 277.361 23.0667 276.596 22.376C275.849 21.6853 275.261 20.864 274.832 19.912C274.402 18.9413 274.188 17.868 274.188 16.692ZM299.841 13.864V24H294.773V13.864H292.953V9.636H294.773V7.48C294.773 6.28533 294.885 5.33333 295.109 4.624C295.296 4.02667 295.595 3.476 296.005 2.972C296.416 2.44933 296.892 2.00133 297.433 1.628C297.993 1.25467 298.591 0.965332 299.225 0.759999C299.86 0.554666 300.485 0.451999 301.101 0.451999C301.531 0.451999 301.923 0.498666 302.277 0.591999C302.651 0.685333 303.024 0.815999 303.397 0.983999V5.408C303.061 5.24 302.744 5.11867 302.445 5.044C302.165 4.95067 301.867 4.904 301.549 4.904C301.344 4.904 301.129 4.94133 300.905 5.016C300.7 5.072 300.504 5.20267 300.317 5.408C300.131 5.61333 300 5.912 299.925 6.304C299.869 6.67733 299.841 7.19067 299.841 7.844V9.636H303.397V13.864H299.841ZM316.091 14.732C315.923 14.0227 315.578 13.4533 315.055 13.024C314.533 12.5947 313.898 12.38 313.151 12.38C312.367 12.38 311.723 12.5853 311.219 12.996C310.734 13.4067 310.426 13.9853 310.295 14.732H316.091ZM310.155 17.672C310.155 19.856 311.182 20.948 313.235 20.948C314.337 20.948 315.167 20.5 315.727 19.604H320.627C319.638 22.8893 317.165 24.532 313.207 24.532C311.994 24.532 310.883 24.3547 309.875 24C308.867 23.6267 307.999 23.104 307.271 22.432C306.562 21.76 306.011 20.9573 305.619 20.024C305.227 19.0907 305.031 18.0453 305.031 16.888C305.031 15.6933 305.218 14.62 305.591 13.668C305.965 12.6973 306.497 11.876 307.187 11.204C307.878 10.532 308.709 10.0187 309.679 9.664C310.669 9.29067 311.779 9.104 313.011 9.104C314.225 9.104 315.317 9.29067 316.287 9.664C317.258 10.0187 318.079 10.5413 318.751 11.232C319.423 11.9227 319.937 12.772 320.291 13.78C320.646 14.7693 320.823 15.8893 320.823 17.14V17.672H310.155ZM333.24 13.332C332.307 12.8467 331.392 12.604 330.496 12.604C330.03 12.604 329.647 12.6973 329.348 12.884C329.068 13.0707 328.928 13.3227 328.928 13.64C328.928 13.808 328.947 13.948 328.984 14.06C329.04 14.1533 329.143 14.2467 329.292 14.34C329.46 14.4333 329.694 14.5173 329.992 14.592C330.31 14.6667 330.72 14.76 331.224 14.872C332.624 15.152 333.67 15.656 334.36 16.384C335.051 17.0933 335.396 18.008 335.396 19.128C335.396 19.968 335.228 20.724 334.892 21.396C334.556 22.068 334.09 22.6373 333.492 23.104C332.895 23.552 332.176 23.8973 331.336 24.14C330.496 24.4013 329.572 24.532 328.564 24.532C326.623 24.532 324.71 23.9813 322.824 22.88L324.672 19.296C326.091 20.2667 327.435 20.752 328.704 20.752C329.171 20.752 329.554 20.6493 329.852 20.444C330.151 20.2387 330.3 19.9773 330.3 19.66C330.3 19.4733 330.272 19.324 330.216 19.212C330.179 19.0813 330.086 18.9693 329.936 18.876C329.787 18.764 329.563 18.6707 329.264 18.596C328.984 18.5027 328.611 18.4093 328.144 18.316C326.576 17.9987 325.475 17.532 324.84 16.916C324.224 16.2813 323.916 15.4133 323.916 14.312C323.916 13.5093 324.066 12.7907 324.364 12.156C324.663 11.5027 325.092 10.952 325.652 10.504C326.212 10.056 326.884 9.71067 327.668 9.468C328.471 9.22533 329.358 9.104 330.328 9.104C331.915 9.104 333.455 9.412 334.948 10.028L333.24 13.332ZM347.486 13.332C346.553 12.8467 345.638 12.604 344.742 12.604C344.276 12.604 343.893 12.6973 343.594 12.884C343.314 13.0707 343.174 13.3227 343.174 13.64C343.174 13.808 343.193 13.948 343.23 14.06C343.286 14.1533 343.389 14.2467 343.538 14.34C343.706 14.4333 343.94 14.5173 344.238 14.592C344.556 14.6667 344.966 14.76 345.47 14.872C346.87 15.152 347.916 15.656 348.606 16.384C349.297 17.0933 349.642 18.008 349.642 19.128C349.642 19.968 349.474 20.724 349.138 21.396C348.802 22.068 348.336 22.6373 347.738 23.104C347.141 23.552 346.422 23.8973 345.582 24.14C344.742 24.4013 343.818 24.532 342.81 24.532C340.869 24.532 338.956 23.9813 337.07 22.88L338.918 19.296C340.337 20.2667 341.681 20.752 342.95 20.752C343.417 20.752 343.8 20.6493 344.098 20.444C344.397 20.2387 344.546 19.9773 344.546 19.66C344.546 19.4733 344.518 19.324 344.462 19.212C344.425 19.0813 344.332 18.9693 344.182 18.876C344.033 18.764 343.809 18.6707 343.51 18.596C343.23 18.5027 342.857 18.4093 342.39 18.316C340.822 17.9987 339.721 17.532 339.086 16.916C338.47 16.2813 338.162 15.4133 338.162 14.312C338.162 13.5093 338.312 12.7907 338.61 12.156C338.909 11.5027 339.338 10.952 339.898 10.504C340.458 10.056 341.13 9.71067 341.914 9.468C342.717 9.22533 343.604 9.104 344.574 9.104C346.161 9.104 347.701 9.412 349.194 10.028L347.486 13.332ZM357.281 9.636V24H352.213V9.636H357.281ZM351.877 4.12C351.877 3.728 351.951 3.364 352.101 3.028C352.25 2.67333 352.455 2.36533 352.717 2.104C352.978 1.84266 353.277 1.63733 353.613 1.488C353.967 1.33867 354.341 1.264 354.733 1.264C355.125 1.264 355.489 1.33867 355.825 1.488C356.179 1.63733 356.487 1.84266 356.749 2.104C357.01 2.36533 357.215 2.67333 357.365 3.028C357.514 3.364 357.589 3.728 357.589 4.12C357.589 4.512 357.514 4.88533 357.365 5.24C357.215 5.576 357.01 5.87467 356.749 6.136C356.487 6.39733 356.179 6.60267 355.825 6.752C355.489 6.90133 355.125 6.976 354.733 6.976C354.341 6.976 353.967 6.90133 353.613 6.752C353.277 6.60267 352.978 6.39733 352.717 6.136C352.455 5.87467 352.25 5.576 352.101 5.24C351.951 4.88533 351.877 4.512 351.877 4.12ZM365.532 16.748C365.532 17.2333 365.616 17.6813 365.784 18.092C365.97 18.484 366.204 18.8293 366.484 19.128C366.782 19.4267 367.128 19.66 367.52 19.828C367.93 19.996 368.36 20.08 368.808 20.08C369.256 20.08 369.676 19.996 370.068 19.828C370.478 19.66 370.824 19.4267 371.104 19.128C371.402 18.8293 371.636 18.484 371.804 18.092C371.99 17.6813 372.084 17.2427 372.084 16.776C372.084 16.328 371.99 15.908 371.804 15.516C371.636 15.1053 371.402 14.7507 371.104 14.452C370.824 14.1533 370.478 13.92 370.068 13.752C369.676 13.584 369.256 13.5 368.808 13.5C368.36 13.5 367.93 13.584 367.52 13.752C367.128 13.92 366.782 14.1533 366.484 14.452C366.204 14.7507 365.97 15.096 365.784 15.488C365.616 15.88 365.532 16.3 365.532 16.748ZM360.184 16.692C360.184 15.628 360.398 14.6387 360.828 13.724C361.257 12.7907 361.854 11.988 362.62 11.316C363.385 10.6253 364.29 10.084 365.336 9.692C366.4 9.3 367.557 9.104 368.808 9.104C370.04 9.104 371.178 9.3 372.224 9.692C373.288 10.0653 374.202 10.5973 374.968 11.288C375.752 11.96 376.358 12.772 376.788 13.724C377.217 14.6573 377.432 15.6933 377.432 16.832C377.432 17.9707 377.208 19.016 376.76 19.968C376.33 20.9013 375.733 21.7133 374.968 22.404C374.202 23.076 373.278 23.5987 372.196 23.972C371.132 24.3453 369.974 24.532 368.724 24.532C367.492 24.532 366.353 24.3453 365.308 23.972C364.262 23.5987 363.357 23.0667 362.592 22.376C361.845 21.6853 361.257 20.864 360.828 19.912C360.398 18.9413 360.184 17.868 360.184 16.692ZM380.349 9.636H385.417V11.456C386.108 10.616 386.808 10.056 387.517 9.776C388.227 9.47733 389.057 9.328 390.009 9.328C391.017 9.328 391.876 9.496 392.585 9.832C393.313 10.1493 393.929 10.6067 394.433 11.204C394.844 11.6893 395.124 12.2307 395.273 12.828C395.423 13.4253 395.497 14.1067 395.497 14.872V24H390.429V16.748C390.429 16.0387 390.373 15.4693 390.261 15.04C390.168 14.592 389.991 14.2373 389.729 13.976C389.505 13.752 389.253 13.5933 388.973 13.5C388.693 13.4067 388.395 13.36 388.077 13.36C387.219 13.36 386.556 13.6213 386.089 14.144C385.641 14.648 385.417 15.376 385.417 16.328V24H380.349V9.636ZM408.463 13.332C407.53 12.8467 406.615 12.604 405.719 12.604C405.252 12.604 404.87 12.6973 404.571 12.884C404.291 13.0707 404.151 13.3227 404.151 13.64C404.151 13.808 404.17 13.948 404.207 14.06C404.263 14.1533 404.366 14.2467 404.515 14.34C404.683 14.4333 404.916 14.5173 405.215 14.592C405.532 14.6667 405.943 14.76 406.447 14.872C407.847 15.152 408.892 15.656 409.583 16.384C410.274 17.0933 410.619 18.008 410.619 19.128C410.619 19.968 410.451 20.724 410.115 21.396C409.779 22.068 409.312 22.6373 408.715 23.104C408.118 23.552 407.399 23.8973 406.559 24.14C405.719 24.4013 404.795 24.532 403.787 24.532C401.846 24.532 399.932 23.9813 398.047 22.88L399.895 19.296C401.314 20.2667 402.658 20.752 403.927 20.752C404.394 20.752 404.776 20.6493 405.075 20.444C405.374 20.2387 405.523 19.9773 405.523 19.66C405.523 19.4733 405.495 19.324 405.439 19.212C405.402 19.0813 405.308 18.9693 405.159 18.876C405.01 18.764 404.786 18.6707 404.487 18.596C404.207 18.5027 403.834 18.4093 403.367 18.316C401.799 17.9987 400.698 17.532 400.063 16.916C399.447 16.2813 399.139 15.4133 399.139 14.312C399.139 13.5093 399.288 12.7907 399.587 12.156C399.886 11.5027 400.315 10.952 400.875 10.504C401.435 10.056 402.107 9.71067 402.891 9.468C403.694 9.22533 404.58 9.104 405.551 9.104C407.138 9.104 408.678 9.412 410.171 10.028L408.463 13.332ZM13.224 43.536H6.7V47.064H12.86V51.712H6.7V55.352H13.224V60H1.212V38.888H13.224V43.536ZM21.4088 52.776C21.4088 53.2427 21.4928 53.6813 21.6608 54.092C21.8288 54.484 22.0528 54.8293 22.3328 55.128C22.6314 55.4267 22.9768 55.66 23.3688 55.828C23.7794 55.996 24.2181 56.08 24.6848 56.08C25.1328 56.08 25.5528 55.996 25.9448 55.828C26.3554 55.66 26.7008 55.4267 26.9808 55.128C27.2794 54.8293 27.5128 54.484 27.6808 54.092C27.8674 53.7 27.9608 53.28 27.9608 52.832C27.9608 52.384 27.8674 51.964 27.6808 51.572C27.5128 51.1613 27.2794 50.8067 26.9808 50.508C26.7008 50.2093 26.3554 49.976 25.9448 49.808C25.5528 49.64 25.1328 49.556 24.6848 49.556C24.2368 49.556 23.8074 49.64 23.3968 49.808C23.0048 49.976 22.6594 50.2093 22.3607 50.508C22.0808 50.8067 21.8474 51.152 21.6608 51.544C21.4928 51.9173 21.4088 52.328 21.4088 52.776ZM27.7928 36.76H32.8888V60H27.7928V58.404C26.7101 59.7667 25.2448 60.448 23.3968 60.448C22.3514 60.448 21.3901 60.252 20.5128 59.86C19.6354 59.468 18.8701 58.9267 18.2168 58.236C17.5634 57.5453 17.0501 56.7333 16.6768 55.8C16.3221 54.8667 16.1448 53.8587 16.1448 52.776C16.1448 51.7493 16.3128 50.7787 16.6488 49.864C17.0034 48.9307 17.4981 48.1187 18.1328 47.428C18.7674 46.7373 19.5234 46.196 20.4008 45.804C21.2968 45.3933 22.2768 45.188 23.3408 45.188C25.1328 45.188 26.6168 45.8133 27.7928 47.064V36.76ZM41.4056 45.636V53.728C41.4056 55.5013 42.2642 56.388 43.9816 56.388C45.6989 56.388 46.5576 55.5013 46.5576 53.728V45.636H51.6256V54.708C51.6256 56.6493 50.9816 58.1053 49.6936 59.076C48.4242 60.0467 46.5202 60.532 43.9816 60.532C41.4429 60.532 39.5296 60.0467 38.2416 59.076C36.9722 58.1053 36.3376 56.6493 36.3376 54.708V45.636H41.4056ZM65.904 50.284C65.0267 49.6867 64.14 49.388 63.244 49.388C62.7587 49.388 62.3014 49.472 61.872 49.64C61.4614 49.808 61.0974 50.0507 60.78 50.368C60.4627 50.6667 60.2107 51.0307 60.024 51.46C59.856 51.8707 59.772 52.3373 59.772 52.86C59.772 53.364 59.856 53.8307 60.024 54.26C60.2107 54.6707 60.4534 55.0347 60.752 55.352C61.0694 55.6507 61.4427 55.884 61.872 56.052C62.3014 56.22 62.7587 56.304 63.244 56.304C64.196 56.304 65.0827 55.9773 65.904 55.324V59.636C64.6534 60.1773 63.468 60.448 62.348 60.448C61.3027 60.448 60.304 60.2707 59.352 59.916C58.4187 59.5613 57.588 59.0573 56.86 58.404C56.1507 57.732 55.5814 56.9387 55.152 56.024C54.7227 55.0907 54.508 54.0547 54.508 52.916C54.508 51.7773 54.7134 50.7413 55.124 49.808C55.5347 48.856 56.0947 48.044 56.804 47.372C57.5134 46.6813 58.3534 46.1493 59.324 45.776C60.3134 45.384 61.368 45.188 62.488 45.188C63.72 45.188 64.8587 45.4493 65.904 45.972V50.284ZM73.4986 52.776C73.4986 53.2427 73.5826 53.6813 73.7506 54.092C73.9186 54.484 74.1426 54.8293 74.4226 55.128C74.7213 55.4267 75.0666 55.66 75.4586 55.828C75.8693 55.996 76.3079 56.08 76.7746 56.08C77.2226 56.08 77.6426 55.996 78.0346 55.828C78.4453 55.66 78.7906 55.4267 79.0706 55.128C79.3693 54.8293 79.6026 54.484 79.7706 54.092C79.9573 53.7 80.0506 53.28 80.0506 52.832C80.0506 52.384 79.9573 51.964 79.7706 51.572C79.6026 51.1613 79.3693 50.8067 79.0706 50.508C78.7906 50.2093 78.4453 49.976 78.0346 49.808C77.6426 49.64 77.2226 49.556 76.7746 49.556C76.3079 49.556 75.8693 49.64 75.4586 49.808C75.0666 49.976 74.7213 50.2093 74.4226 50.508C74.1426 50.8067 73.9186 51.152 73.7506 51.544C73.5826 51.9173 73.4986 52.328 73.4986 52.776ZM79.8826 45.636H84.9786V60H79.8826V58.404C78.7999 59.7667 77.3346 60.448 75.4866 60.448C74.4413 60.448 73.4799 60.2613 72.6026 59.888C71.7253 59.496 70.9599 58.9547 70.3066 58.264C69.6533 57.5733 69.1399 56.7613 68.7666 55.828C68.4119 54.8947 68.2346 53.8773 68.2346 52.776C68.2346 51.7493 68.4119 50.7787 68.7666 49.864C69.1213 48.9307 69.6159 48.1187 70.2506 47.428C70.8853 46.7373 71.6413 46.196 72.5186 45.804C73.3959 45.3933 74.3666 45.188 75.4306 45.188C77.2226 45.188 78.7066 45.8133 79.8826 47.064V45.636ZM94.0834 49.864V60H89.0154V49.864H87.3354V45.636H89.0154V41.324H94.0834V45.636H96.9674V49.864H94.0834ZM104.324 45.636V60H99.2555V45.636H104.324ZM98.9195 40.12C98.9195 39.728 98.9942 39.364 99.1435 39.028C99.2929 38.6733 99.4982 38.3653 99.7595 38.104C100.021 37.8427 100.32 37.6373 100.656 37.488C101.01 37.3387 101.384 37.264 101.776 37.264C102.168 37.264 102.532 37.3387 102.868 37.488C103.222 37.6373 103.53 37.8427 103.792 38.104C104.053 38.3653 104.258 38.6733 104.408 39.028C104.557 39.364 104.632 39.728 104.632 40.12C104.632 40.512 104.557 40.8853 104.408 41.24C104.258 41.576 104.053 41.8747 103.792 42.136C103.53 42.3973 103.222 42.6027 102.868 42.752C102.532 42.9013 102.168 42.976 101.776 42.976C101.384 42.976 101.01 42.9013 100.656 42.752C100.32 42.6027 100.021 42.3973 99.7595 42.136C99.4982 41.8747 99.2929 41.576 99.1435 41.24C98.9942 40.8853 98.9195 40.512 98.9195 40.12ZM112.575 52.748C112.575 53.2333 112.659 53.6813 112.827 54.092C113.013 54.484 113.247 54.8293 113.527 55.128C113.825 55.4267 114.171 55.66 114.563 55.828C114.973 55.996 115.403 56.08 115.851 56.08C116.299 56.08 116.719 55.996 117.111 55.828C117.521 55.66 117.867 55.4267 118.147 55.128C118.445 54.8293 118.679 54.484 118.847 54.092C119.033 53.6813 119.127 53.2427 119.127 52.776C119.127 52.328 119.033 51.908 118.847 51.516C118.679 51.1053 118.445 50.7507 118.147 50.452C117.867 50.1533 117.521 49.92 117.111 49.752C116.719 49.584 116.299 49.5 115.851 49.5C115.403 49.5 114.973 49.584 114.563 49.752C114.171 49.92 113.825 50.1533 113.527 50.452C113.247 50.7507 113.013 51.096 112.827 51.488C112.659 51.88 112.575 52.3 112.575 52.748ZM107.227 52.692C107.227 51.628 107.441 50.6387 107.871 49.724C108.3 48.7907 108.897 47.988 109.663 47.316C110.428 46.6253 111.333 46.084 112.379 45.692C113.443 45.3 114.6 45.104 115.851 45.104C117.083 45.104 118.221 45.3 119.267 45.692C120.331 46.0653 121.245 46.5973 122.011 47.288C122.795 47.96 123.401 48.772 123.831 49.724C124.26 50.6573 124.475 51.6933 124.475 52.832C124.475 53.9707 124.251 55.016 123.803 55.968C123.373 56.9013 122.776 57.7133 122.011 58.404C121.245 59.076 120.321 59.5987 119.239 59.972C118.175 60.3453 117.017 60.532 115.767 60.532C114.535 60.532 113.396 60.3453 112.351 59.972C111.305 59.5987 110.4 59.0667 109.635 58.376C108.888 57.6853 108.3 56.864 107.871 55.912C107.441 54.9413 107.227 53.868 107.227 52.692ZM127.392 45.636H132.46V47.456C133.151 46.616 133.851 46.056 134.56 45.776C135.27 45.4773 136.1 45.328 137.052 45.328C138.06 45.328 138.919 45.496 139.628 45.832C140.356 46.1493 140.972 46.6067 141.476 47.204C141.887 47.6893 142.167 48.2307 142.316 48.828C142.466 49.4253 142.54 50.1067 142.54 50.872V60H137.472V52.748C137.472 52.0387 137.416 51.4693 137.304 51.04C137.211 50.592 137.034 50.2373 136.772 49.976C136.548 49.752 136.296 49.5933 136.016 49.5C135.736 49.4067 135.438 49.36 135.12 49.36C134.262 49.36 133.599 49.6213 133.132 50.144C132.684 50.648 132.46 51.376 132.46 52.328V60H127.392V45.636ZM161.466 48.576H163.286C165.302 48.576 166.31 47.6987 166.31 45.944C166.31 44.1893 165.302 43.312 163.286 43.312H161.466V48.576ZM161.466 60H155.978V38.888H164.714C167.084 38.888 168.895 39.504 170.146 40.736C171.415 41.968 172.05 43.704 172.05 45.944C172.05 48.184 171.415 49.92 170.146 51.152C168.895 52.384 167.084 53 164.714 53H161.466V60ZM174.478 45.636H179.546V47.988C180.088 47.1293 180.75 46.476 181.534 46.028C182.318 45.5613 183.233 45.328 184.278 45.328C184.409 45.328 184.549 45.328 184.698 45.328C184.866 45.328 185.053 45.3467 185.258 45.384V50.228C184.586 49.892 183.858 49.724 183.074 49.724C181.898 49.724 181.012 50.0787 180.414 50.788C179.836 51.4787 179.546 52.496 179.546 53.84V60H174.478V45.636ZM192.419 52.748C192.419 53.2333 192.503 53.6813 192.671 54.092C192.857 54.484 193.091 54.8293 193.371 55.128C193.669 55.4267 194.015 55.66 194.407 55.828C194.817 55.996 195.247 56.08 195.695 56.08C196.143 56.08 196.563 55.996 196.955 55.828C197.365 55.66 197.711 55.4267 197.991 55.128C198.289 54.8293 198.523 54.484 198.691 54.092C198.877 53.6813 198.971 53.2427 198.971 52.776C198.971 52.328 198.877 51.908 198.691 51.516C198.523 51.1053 198.289 50.7507 197.991 50.452C197.711 50.1533 197.365 49.92 196.955 49.752C196.563 49.584 196.143 49.5 195.695 49.5C195.247 49.5 194.817 49.584 194.407 49.752C194.015 49.92 193.669 50.1533 193.371 50.452C193.091 50.7507 192.857 51.096 192.671 51.488C192.503 51.88 192.419 52.3 192.419 52.748ZM187.071 52.692C187.071 51.628 187.285 50.6387 187.715 49.724C188.144 48.7907 188.741 47.988 189.507 47.316C190.272 46.6253 191.177 46.084 192.223 45.692C193.287 45.3 194.444 45.104 195.695 45.104C196.927 45.104 198.065 45.3 199.111 45.692C200.175 46.0653 201.089 46.5973 201.855 47.288C202.639 47.96 203.245 48.772 203.675 49.724C204.104 50.6573 204.319 51.6933 204.319 52.832C204.319 53.9707 204.095 55.016 203.647 55.968C203.217 56.9013 202.62 57.7133 201.855 58.404C201.089 59.076 200.165 59.5987 199.083 59.972C198.019 60.3453 196.861 60.532 195.611 60.532C194.379 60.532 193.24 60.3453 192.195 59.972C191.149 59.5987 190.244 59.0667 189.479 58.376C188.732 57.6853 188.144 56.864 187.715 55.912C187.285 54.9413 187.071 53.868 187.071 52.692ZM211.94 52.748C211.94 53.2147 212.024 53.6533 212.192 54.064C212.36 54.456 212.584 54.8013 212.864 55.1C213.163 55.3987 213.508 55.632 213.9 55.8C214.311 55.968 214.749 56.052 215.216 56.052C215.664 56.052 216.084 55.968 216.476 55.8C216.887 55.632 217.232 55.3987 217.512 55.1C217.811 54.8013 218.044 54.456 218.212 54.064C218.399 53.6533 218.492 53.224 218.492 52.776C218.492 52.3093 218.399 51.88 218.212 51.488C218.044 51.096 217.811 50.7507 217.512 50.452C217.213 50.1533 216.859 49.92 216.448 49.752C216.056 49.584 215.645 49.5 215.216 49.5C214.768 49.5 214.348 49.5933 213.956 49.78C213.564 49.948 213.219 50.1813 212.92 50.48C212.621 50.76 212.379 51.096 212.192 51.488C212.024 51.88 211.94 52.3 211.94 52.748ZM223.308 45.636V59.02C223.308 59.8227 223.261 60.5413 223.168 61.176C223.075 61.8107 222.944 62.3707 222.776 62.856C222.552 63.472 222.197 64.0413 221.712 64.564C221.245 65.1053 220.676 65.572 220.004 65.964C219.332 66.356 218.567 66.664 217.708 66.888C216.868 67.112 215.953 67.224 214.964 67.224C213.844 67.224 212.817 67.084 211.884 66.804C210.951 66.524 210.129 66.132 209.42 65.628C208.729 65.1427 208.16 64.564 207.712 63.892C207.264 63.2387 206.965 62.52 206.816 61.736H212.528C212.883 62.688 213.685 63.164 214.936 63.164C216 63.164 216.812 62.8653 217.372 62.268C217.951 61.6707 218.24 60.84 218.24 59.776V58.404C217.867 58.7587 217.503 59.0573 217.148 59.3C216.812 59.524 216.467 59.7107 216.112 59.86C215.757 60.0093 215.384 60.112 214.992 60.168C214.6 60.2427 214.171 60.28 213.704 60.28C212.677 60.28 211.735 60.1027 210.876 59.748C210.017 59.3933 209.271 58.8987 208.636 58.264C208.02 57.6293 207.535 56.8733 207.18 55.996C206.844 55.1 206.676 54.1107 206.676 53.028C206.676 51.9267 206.863 50.9093 207.236 49.976C207.609 49.024 208.113 48.2027 208.748 47.512C209.401 46.8027 210.167 46.252 211.044 45.86C211.94 45.4493 212.911 45.244 213.956 45.244C215.655 45.244 217.083 45.8787 218.24 47.148V45.636H223.308ZM227.252 45.636H232.32V47.988C232.861 47.1293 233.524 46.476 234.308 46.028C235.092 45.5613 236.006 45.328 237.052 45.328C237.182 45.328 237.322 45.328 237.472 45.328C237.64 45.328 237.826 45.3467 238.032 45.384V50.228C237.36 49.892 236.632 49.724 235.848 49.724C234.672 49.724 233.785 50.0787 233.188 50.788C232.609 51.4787 232.32 52.496 232.32 53.84V60H227.252V45.636ZM245.163 52.776C245.163 53.2427 245.247 53.6813 245.415 54.092C245.583 54.484 245.807 54.8293 246.087 55.128C246.385 55.4267 246.731 55.66 247.123 55.828C247.533 55.996 247.972 56.08 248.439 56.08C248.887 56.08 249.307 55.996 249.699 55.828C250.109 55.66 250.455 55.4267 250.735 55.128C251.033 54.8293 251.267 54.484 251.435 54.092C251.621 53.7 251.715 53.28 251.715 52.832C251.715 52.384 251.621 51.964 251.435 51.572C251.267 51.1613 251.033 50.8067 250.735 50.508C250.455 50.2093 250.109 49.976 249.699 49.808C249.307 49.64 248.887 49.556 248.439 49.556C247.972 49.556 247.533 49.64 247.123 49.808C246.731 49.976 246.385 50.2093 246.087 50.508C245.807 50.8067 245.583 51.152 245.415 51.544C245.247 51.9173 245.163 52.328 245.163 52.776ZM251.547 45.636H256.643V60H251.547V58.404C250.464 59.7667 248.999 60.448 247.151 60.448C246.105 60.448 245.144 60.2613 244.267 59.888C243.389 59.496 242.624 58.9547 241.971 58.264C241.317 57.5733 240.804 56.7613 240.431 55.828C240.076 54.8947 239.899 53.8773 239.899 52.776C239.899 51.7493 240.076 50.7787 240.431 49.864C240.785 48.9307 241.28 48.1187 241.915 47.428C242.549 46.7373 243.305 46.196 244.183 45.804C245.06 45.3933 246.031 45.188 247.095 45.188C248.887 45.188 250.371 45.8133 251.547 47.064V45.636ZM260.091 45.636H265.159V47.4C266.541 46.0747 268.09 45.412 269.807 45.412C271.935 45.412 273.559 46.308 274.679 48.1C275.818 46.2893 277.442 45.384 279.551 45.384C280.223 45.384 280.858 45.4867 281.455 45.692C282.053 45.8787 282.566 46.1867 282.995 46.616C283.425 47.0267 283.761 47.568 284.003 48.24C284.265 48.912 284.395 49.724 284.395 50.676V60H279.327V52.916C279.327 52.188 279.271 51.5907 279.159 51.124C279.066 50.6573 278.917 50.2933 278.711 50.032C278.525 49.7707 278.301 49.5933 278.039 49.5C277.778 49.4067 277.498 49.36 277.199 49.36C275.575 49.36 274.763 50.5453 274.763 52.916V60H269.695V52.916C269.695 52.188 269.649 51.5907 269.555 51.124C269.462 50.6387 269.322 50.256 269.135 49.976C268.967 49.696 268.743 49.5093 268.463 49.416C268.183 49.304 267.857 49.248 267.483 49.248C267.166 49.248 266.867 49.2947 266.587 49.388C266.307 49.4813 266.055 49.668 265.831 49.948C265.626 50.2093 265.458 50.5827 265.327 51.068C265.215 51.5347 265.159 52.1507 265.159 52.916V60H260.091V45.636Z" fill="black"/>
</svg>
